<?xml version="1.0" encoding="utf-8"?>
<!-- Generator: Adobe Illustrator 19.1.0, SVG Export Plug-In . SVG Version: 6.00 Build 0)  -->
<svg version="1.1" id="Ebene_1" xmlns="http://www.w3.org/2000/svg" xmlns:xlink="http://www.w3.org/1999/xlink" x="0px" y="0px"
	 viewBox="0 0 446 158" style="enable-background:new 0 0 446 158;" xml:space="preserve">
<style type="text/css">
	.st0{fill:#004B8D;}
	.st1{fill:#FFFFFF;}
	.st2{fill:#E30613;}
</style>
<g>
	<path class="st0" d="M211.5,96.5c-0.7-2.5-1.8-6.4-3.7-13.8c-0.2-0.9-0.9-1.8-1.7-2.2c-0.5-0.3-1.1-0.4-1.7-0.4
		c-0.4,0-0.8,0.1-1.1,0.2l-7.5,2.6c-1.3,0.4-2.2,1.6-2.3,2.9c-0.2,1.7-0.4,3.5-0.7,5.4c-1.2-3.6-3.9-5.6-7.8-5.6
		c-0.8,0-1.8,0.1-2.7,0.3c-4.2,0.9-7.7,3.2-10,6.8c-1.2-2.7-3.4-4.2-6.1-4.2c-0.5,0-0.9,0-1.4,0.1c-1.8,0.4-3.3,1.3-4.3,2.5
		c-0.4-0.1-0.8-0.2-1.2-0.2c-0.2,0-0.5,0-0.7,0.1l-7.5,1.5c-1.6,0.3-2.8,1.8-2.8,3.4l0,2.6c-2.4-3.3-5.6-3.9-7.6-3.9
		c-0.8,0-1.6,0.1-2.5,0.3c-5.9,1.2-10.2,5.2-12.3,11.5c-0.5,1.5-0.8,3-1,4.5l0.2-21.5c0-1-0.4-2-1.2-2.6c-0.6-0.6-1.5-0.9-2.3-0.9
		c-0.1,0-0.3,0-0.4,0c-0.7,0.1-1.5,0.2-2.4,0.4c-4.9,1-9.8,3.8-13.3,7.7c-3.9,4.3-5.6,9.3-4.7,13.8c0.9,4.2,3.8,6.7,7.9,6.7
		c0.6,0,1.2,0,1.8-0.1l-0.2,17.7c0,1.1,0.5,2.2,1.4,2.9c0.6,0.4,1.3,0.7,2.1,0.7c0.4,0,0.8-0.1,1.1-0.2c0.2-0.1,0.4-0.1,0.8-0.2
		c0.5-0.1,1-0.1,1.5-0.1c3.3,0,7,1.9,10.6,3.7c3.8,1.9,7.4,3.7,11,3.7c0.7,0,1.3-0.1,2-0.2c2.9-0.6,7.7-3.1,6.9-13
		c-0.1-1.2-0.9-2.3-2-2.9c-0.1,0-0.2-0.1-0.2-0.1c1.4-1.2,2.6-2.8,3.5-4.6c0.2-0.4,0.4-0.7,0.5-1.1c1.6,3.1,4.4,4.8,8.1,4.8
		c0.8,0,1.7-0.1,2.6-0.3c3.5-0.7,8-2.9,10.9-9.1c2.5,4,6.4,4.8,8.9,4.8c1,0,2-0.1,3.1-0.3c3.6-0.7,6.8-2.5,9.4-5.3
		c1.7,1.2,3.8,1.9,6.2,1.9c0.9,0,1.8-0.1,2.8-0.3c3.5-0.7,6.5-2.4,8.6-4.8c2.5-2.9,3.4-6.5,2.6-10.4
		C212.5,99.9,212.1,98.6,211.5,96.5z M139.4,110.4c0.2,0.2,0.4,0.4,0.6,0.6c0,2-0.3,3.5-0.6,4.6
		C139.2,114.1,139.2,112.2,139.4,110.4z M124.9,118.7c0.1,0.5,0.1,1,0.2,1.5c0.4,2.2,1.2,4,2.3,5.5c-0.9-0.3-1.8-0.5-2.6-0.7
		L124.9,118.7z M162.9,108.1c-0.1,0.3-0.1,0.5-0.2,0.7l0.1-8.1c0.3,0.2,0.6,0.3,1,0.4C163.7,103.5,163.4,106,162.9,108.1z
		 M188.4,105.6c-1.5,2-2.7,2.6-4.2,2.9c-0.1,0-0.2,0-0.3,0c0,0,0,0,0-0.1C185.6,107.8,187.1,106.7,188.4,105.6
		C188.4,105.6,188.4,105.6,188.4,105.6z"/>
	<path class="st0" d="M303.8,84.1c-0.5-0.2-1-0.4-1.5-0.4c-0.3,0-0.5,0-0.8,0.1c0-1.6,0-5.9,0.1-17.5c0-1.1-0.5-2.1-1.3-2.7
		c-0.6-0.5-1.4-0.8-2.2-0.8c-0.2,0-0.5,0-0.7,0.1l-7.5,1.5c-1.1,0.2-1.9,0.9-2.4,1.8c0,0,0,0,0,0c-0.6-0.5-1.4-0.8-2.2-0.8
		c-0.2,0-0.5,0-0.7,0.1l-7.5,1.5c-1.6,0.3-2.8,1.8-2.8,3.4l0,2.6c-1.8-2.6-4.4-3.9-7.6-3.9c-0.8,0-1.6,0.1-2.5,0.3
		c-4.1,0.8-7.4,3-9.7,6.3l2.8-12.8c0.3-1.2-0.1-2.4-0.9-3.2c-0.7-0.7-1.6-1-2.5-1c-0.2,0-0.5,0-0.7,0.1l-3.4,0.7
		c-1.4,0.3-2.5,1.4-2.7,2.7l-1.9,9.5l-3.7-8c-0.6-1.2-1.8-2-3.2-2c-0.1,0-0.3,0-0.4,0c-0.7,0.1-1.5,0.2-2.4,0.4
		c-4.9,1-9.8,3.8-13.3,7.7c-3.9,4.3-5.6,9.3-4.7,13.8c0.9,4.2,3.8,6.7,7.9,6.7c0.8,0,1.7-0.1,2.7-0.3c1.1-0.2,2-1,2.5-2
		c0.5-1,0.4-2.2-0.2-3.2c-0.2-0.3-0.3-0.5-0.4-0.6c-0.1-0.2-0.4-0.5-0.6-1.7c-0.4-1.9-0.4-4.3,0.9-6.5l6.5,13.4l-0.2,15.8
		c0,1.1,0.5,2.1,1.3,2.7c0.6,0.5,1.4,0.8,2.2,0.8c0.2,0,0.5,0,0.7-0.1l8.3-1.7c1.6-0.3,2.8-1.8,2.8-3.4l0.1-6
		c1.8,4.4,5.3,6.8,10,6.8c1,0,2.1-0.1,3.2-0.3c4.2-0.9,7.7-3.6,9.8-7.7c0.2-0.4,0.4-0.8,0.6-1.2c1.5,3.2,4.3,5,7.8,5
		c0.7,0,1.4-0.1,2.1-0.2c2.6-0.5,4.8-1.8,6.4-3.7c1.3,0.8,2.8,1.3,4.5,1.3c0.6,0,1.3-0.1,1.9-0.2c5.1-1,8.1-5.2,7.4-10.4
		C305.6,85.6,304.8,84.6,303.8,84.1z M265.4,90.1c-0.2-1.5-0.2-3.4,0-5.2c0.2,0.2,0.4,0.4,0.6,0.6C266,87.5,265.7,89,265.4,90.1z"/>
	<path class="st0" d="M438.2,60.5c-0.4-1.9-1.5-3.6-3-4.7c0.5-0.6,0.9-1.3,0.9-2.1l1.8-25.6c0.1-1.1-0.4-2.2-1.2-2.9
		c-0.6-0.6-1.5-0.9-2.3-0.9c-0.2,0-0.5,0-0.7,0.1l-7.5,1.5c-1.7,0.3-2.9,1.9-2.8,3.6l1.3,25c0,0.7,0.3,1.3,0.7,1.9
		c-0.4,0.4-0.8,0.9-1.2,1.4c-0.3,0.4-0.5,0.9-0.7,1.3c0,0,0,0,0,0c-0.2,0-0.5,0-0.7,0.1l0-1.7c0-0.9-0.1-1.8-0.3-2.8
		c-0.6-3-2.2-5.3-4.4-6.6L422,44c1.1-1.1,1.3-2.8,0.5-4.1c-0.6-1.1-1.8-1.8-3.1-1.8c-0.2,0-0.5,0-0.7,0.1l-5.1,1
		c-0.8,0.2-1.5,0.6-2,1.2l-2.1,2.5l0.1-9.4c0-1.1-0.5-2.2-1.5-2.9c-0.6-0.4-1.3-0.7-2-0.7c-0.4,0-0.8,0.1-1.1,0.2l-7.5,2.6
		c-1.4,0.5-2.3,1.8-2.3,3.3l-0.1,9.1c-1.3-0.8-2.9-1.3-4.7-1.3c-0.9,0-1.8,0.1-2.8,0.3c-5.2,1.1-9.1,4.3-11.4,9.5l0-2.6
		c0-1.1-0.5-2.1-1.3-2.7c-0.6-0.5-1.4-0.8-2.2-0.8c-0.2,0-0.5,0-0.7,0.1l-7.5,1.5c-0.5,0.1-0.9,0.3-1.3,0.5
		c-0.4-0.1-0.8-0.1-1.2-0.1c-0.7,0-1.5,0.1-2.4,0.3c-4.2,0.8-7.6,3.4-9.8,7.5c-0.7,1.2-1.3,2.6-1.7,4c-0.7-0.8-1.5-1.4-2.3-1.9
		c1.2-2.6,1.7-5.4,1.1-8.1c-0.5-2.5-1.8-4.7-3.8-6.3c-2.2-1.9-5.3-2.9-8.7-2.9c-1.4,0-2.8,0.2-4.3,0.5c-5.5,1.1-10.6,4.1-14.2,8.1
		c-3.8,4.2-5.4,9.2-4.5,13.6c0.9,4.2,3.8,6.7,7.9,6.7c0.6,0,1.2,0,1.8-0.1l-0.2,16.9c0,1.1,0.5,2.1,1.3,2.7c0.6,0.5,1.4,0.8,2.2,0.8
		c0.2,0,0.5,0,0.7-0.1l7.5-1.5c0.7-0.1,1.3-0.5,1.8-0.9c1,0.4,2.1,0.6,3.3,0.6c0.8,0,1.7-0.1,2.6-0.3c4.5-0.9,7.9-3.8,9.8-8.2
		c0.4,0.5,0.8,0.9,1.2,1.3c1.8,1.6,4.1,2.5,6.6,2.5c0.8,0,1.5-0.1,2.3-0.2c2.5-0.5,4.7-1.8,6.5-3.8c1.2,0.7,2.7,1.1,4.2,1.1
		c0.7,0,1.3-0.1,2-0.2c2.9-0.6,5.3-1.9,7.1-4c1.6,0.9,3.4,1.4,5.5,1.4c1,0,2-0.1,3.1-0.3c2.7-0.6,5.2-1.7,7.3-3.4
		c0.1,0.1,0.1,0.1,0.2,0.2c0.6,0.5,1.4,0.8,2.2,0.8c0.2,0,0.5,0,0.7-0.1l7.5-1.5c1.6-0.3,2.8-1.8,2.8-3.4l0-4.3
		c1.4,3.5,4.5,5.5,8.4,5.5c0.9,0,1.8-0.1,2.8-0.3c1.8-0.4,4-1.9,5.4-4.3c1.3,1.1,3,1.7,4.8,1.7c0.5,0,1-0.1,1.5-0.2
		c2-0.4,3.7-1.6,4.9-3.3C438.2,64.5,438.6,62.5,438.2,60.5z M337.5,76.3c-0.2,0.9-0.5,1.3-0.6,1.3c0,0,0,0,0,0
		c-0.1,0-0.4-0.1-1.1-0.6c0,0-0.1-0.1-0.1-0.1l0.1-8.4c0,0,0.1,0,0.1,0c0.2,0,0.3,0,0.4,0.1c0.2,0.1,0.8,0.7,1.2,2.8
		C337.7,73.1,337.8,75,337.5,76.3z M361.7,70c0,0.1,0,0.2,0,0.3c-0.2-1.7-0.2-3.7,0.1-5.6L361.7,70z M394.9,62.3
		c-1.8,3.1-3.2,4.2-5.3,4.6c-0.2,0-0.3,0.1-0.4,0.1c-0.1-0.2-0.2-0.5-0.3-0.9c-0.4-2-0.4-4.9-0.1-7.5c0.2,0.2,0.5,0.3,0.8,0.5
		c0.8,0.3,1.8,0.5,2.8,0.5c0.5,0,1,0,1.4-0.1c0.4-0.1,0.8-0.2,1.1-0.4L394.9,62.3z"/>
	<path class="st0" d="M346.9,22.8c-0.3-0.1-0.7-0.2-1-0.2c0.2-0.2,0.3-0.4,0.5-0.6c2.6-3.3,3.5-7.2,2.8-11c-0.9-4.3-3.8-6.8-8.1-6.8
		c-0.8,0-1.8,0.1-2.7,0.3c-4.4,0.9-7.9,3.4-10.2,7.2c-1.4-2.2-3.8-3.5-6.9-3.5c-0.9,0-1.8,0.1-2.8,0.3c-5.8,1.2-9.9,5-12,11.2
		c0,0,0,0.1,0,0.1c-1.2-4.3-4.3-6.8-8.5-6.8c-0.8,0-1.5,0.1-2.3,0.2c-1.3,0.3-2.6,0.7-3.7,1.4c-0.3-0.1-0.7-0.2-1.1-0.2
		c-0.2,0-0.5,0-0.7,0.1l-7.5,1.5c-1.4,0.3-2.5,1.4-2.7,2.8c-1.3-0.9-2.9-1.3-4.7-1.3c-0.8,0-1.8,0.1-2.7,0.3c-3.8,0.8-7,2.8-9.3,5.8
		c-1.3-1.7-3.3-2.7-5.4-2.7c-0.5,0-1,0.1-1.5,0.2c-1.2,0.2-2.4,0.8-3.5,1.6c-0.4-0.2-0.9-0.3-1.4-0.3c-0.2,0-0.5,0-0.7,0.1l-7.5,1.5
		c-1.4,0.3-2.5,1.4-2.7,2.8c-1.3-0.9-2.9-1.3-4.7-1.3c-0.8,0-1.8,0.1-2.7,0.3c-1.7,0.3-3.2,0.9-4.6,1.7c0.3-0.5,0.5-1.2,0.4-1.8
		c0-0.9-0.1-1.7-0.3-2.7c-0.9-4.3-4.7-7.3-9.3-7.3c-0.7,0-1.4,0.1-2.1,0.2c-3.9,0.8-10.4,3.7-10.4,14.1l-0.1,8.6
		c-1.4-3.5-4.3-5.5-8.1-5.5c-0.8,0-1.5,0.1-2.3,0.2c-1.3,0.3-2.6,0.7-3.7,1.4c-0.3-0.1-0.7-0.2-1.1-0.2c-0.2,0-0.5,0-0.7,0.1
		l-7.5,1.5c-1.6,0.3-2.8,1.8-2.8,3.4l0,2.6c-1.8-2.6-4.4-3.9-7.6-3.9c-0.8,0-1.6,0.1-2.5,0.3c-3.9,0.8-7.1,2.8-9.4,5.9
		c0.1-0.1,0.1-0.2,0.2-0.3c0.9-1.7,1.1-3.8,0.6-6.1c-1.1-5.3-4.9-8.4-10.5-8.4c-1.1,0-2.3,0.1-3.5,0.4c-7.5,1.5-12.6,6.8-15,15.4
		c-1.9,6.9-1.5,14.5-0.5,19.4c2.3,11.3,8.7,13.6,13.7,13.6c1.2,0,2.4-0.1,3.7-0.4c4.6-0.9,8.7-3.3,11.7-6.7c1.8,1.4,4.1,2.1,6.7,2.1
		c1,0,2.1-0.1,3.2-0.3c3.7-0.7,6.8-2.9,9-6.2c0.1,1,0.5,1.9,1.3,2.5c0.6,0.5,1.4,0.8,2.2,0.8c0.2,0,0.5,0,0.7-0.1l7.5-1.5
		c1.6-0.3,2.8-1.8,2.8-3.4l0-3.5c1,2,2.7,3.5,4.7,4.2c-0.6,1.6-0.7,3.4-0.3,5.3c0.9,4.3,4.7,7.3,9.3,7.3c0.7,0,1.4-0.1,2.1-0.2
		c6.6-1.3,10.2-6.3,10.3-14.1l0.1-10.1c2.3,5.6,7,6.6,9.8,6.6h0c1,0,2-0.1,3.1-0.3c2.7-0.6,5.2-1.7,7.3-3.4c0.1,0.1,0.1,0.1,0.2,0.2
		c0.6,0.5,1.4,0.8,2.2,0.8c0.2,0,0.5,0,0.7-0.1l7.5-1.5c1.6-0.3,2.8-1.8,2.8-3.4l0.1-18c0.7,0.5,1.7,0.9,2.9,0.9
		c0.4,0,0.9,0,1.3-0.1c0,0,0,0,0,0c-0.2,2.8,0,5.4,0.4,7.4c1.7,8.4,7.5,9.6,10.7,9.6c1,0,2-0.1,3.1-0.3c2.7-0.6,5.2-1.7,7.3-3.4
		c0.1,0.1,0.1,0.1,0.2,0.2c0.6,0.5,1.4,0.8,2.2,0.8c0.2,0,0.5,0,0.7-0.1l7.5-1.5c1.6-0.3,2.8-1.8,2.8-3.4l0-3.5c1.5,3,4.4,4.8,8,4.8
		c0.8,0,1.6-0.1,2.5-0.3c2.7-0.5,4.9-1.9,6.6-3.9c1.5,0.8,3.3,1.2,5.2,1.2c1,0,2-0.1,3.1-0.3c3.9-0.8,7.3-2.8,10-6
		c1.8,1.5,4.1,2.3,6.7,2.3c1,0,2-0.1,3.1-0.3c6.7-1.4,10.3-6,10.2-13C349.3,24.5,348.3,23.2,346.9,22.8z M320.4,31.2
		c-0.2,0-0.3,0.1-0.4,0.1c-0.1-0.2-0.2-0.5-0.3-0.9c-0.4-2-0.4-4.9-0.1-7.5c0.2,0.2,0.5,0.3,0.8,0.5c0.8,0.3,1.8,0.5,2.8,0.5
		c0.5,0,1,0,1.4-0.1c0.1,0,0.1,0,0.2,0c0,1.7,0.1,3.1,0.2,4C323.5,29.8,322.2,30.8,320.4,31.2z M274.3,40.5c-0.1,0-0.2,0-0.3,0
		c0,0,0,0,0-0.1c1.7-0.8,3.3-1.9,4.6-3.1C277.3,39.4,276.1,40.2,274.3,40.5z M235,48.6c-0.1,0-0.2,0-0.3,0c0,0,0,0,0-0.1
		c1.7-0.8,3.3-1.9,4.6-3.1C238,47.4,236.7,48.2,235,48.6z M224.6,30.7c-0.2-0.3-0.4-0.7-0.6-0.9l2-0.4
		C225.5,29.8,225.1,30.2,224.6,30.7z M172.2,54.8c0,2-0.3,3.5-0.6,4.6c-0.2-1.5-0.2-3.4,0-5.2C171.8,54.4,172,54.6,172.2,54.8z
		 M160.6,45.3c-0.7,1.1-1.4,2.3-1.9,3.6c-1.6,3.9-2.2,8.7-1.6,13.1c-1.4,1.9-3.4,3.3-5.5,3.7c-0.4,0.1-0.7,0.1-1,0.1
		c-0.6,0-0.9-0.1-1.1-0.4c-0.4-0.5-1.1-1.6-1.6-4.2c-1-4.7-1-10.5,0-15.2c0.9-4.2,2.1-6,2.9-6.7c0,0.6-0.2,1.2-0.3,1.5
		c-0.8,0.7-1.2,1.6-1.2,2.6c0,1.1,0.5,2.1,1.4,2.8c1.3,1,2.9,1.6,4.5,1.6c0.5,0,1-0.1,1.6-0.2C158.2,47.3,159.6,46.5,160.6,45.3z"/>
	<path class="st0" d="M123.4,72.1c0-1.5-1-2.8-2.4-3.3c-0.3-0.1-0.7-0.2-1-0.2c0.2-0.2,0.3-0.4,0.5-0.6c2.6-3.3,3.5-7.2,2.8-11
		c-0.9-4.3-3.8-6.8-8.1-6.8c-0.8,0-1.8,0.1-2.7,0.3c-5.7,1.2-10,5.1-12.1,11.2C99.1,57.5,96,55,91.8,55c-0.8,0-1.5,0.1-2.3,0.2
		c-0.4,0.1-0.9,0.2-1.3,0.3c0.1-5.4,0.5-6.6,1-8.1c0.5-1.5-0.2-3.2-1.5-4c-0.5-0.3-1.2-0.5-1.8-0.5c-0.9,0-1.8,0.4-2.4,1
		c-0.3,0.3-1.3,1-4.3,1.6c-2.9,0.6-6.4,0.8-9.2,1c-2.1,0.1-3.8,0.3-5,0.5c-7,1.4-12.4,4.5-15.5,8.8c-2.6,3.7-3.6,8.1-2.7,12.5
		c0.9,4.5,3.7,6.9,7.9,6.9c0.9,0,1.8-0.1,2.8-0.3c1-0.2,1.8-0.8,2.3-1.7c0-0.1,0.1-0.1,0.1-0.2l-0.2,18.2c0,1.1,0.5,2.1,1.3,2.7
		c0.6,0.5,1.4,0.8,2.2,0.8c0.2,0,0.5,0,0.7-0.1l7.5-1.5c1.6-0.3,2.8-1.7,2.8-3.4l0.4-32.1c0,0,0,0,0,0l-0.3,30.6
		c0,1.1,0.5,2.1,1.3,2.7c0.6,0.5,1.4,0.8,2.2,0.8c0.2,0,0.5,0,0.7-0.1l7.5-1.5c1.7-0.3,2.8-1.8,2.8-3.5c0-0.9,0-1.8-0.1-2.6
		c1.6,2.6,4.3,4.1,7.6,4.1c0.8,0,1.6-0.1,2.5-0.3c2.7-0.5,4.8-1.8,6.5-3.9c1.5,0.8,3.2,1.2,5.1,1.2c1,0,2-0.1,3.1-0.3
		C120,83.7,123.6,79.1,123.4,72.1z M59.8,70c-0.2-0.5-0.5-0.8-0.6-1c-0.1-0.1-0.3-0.4-0.6-1.6c-0.7-3.2-0.3-5.3,1.3-6.7L59.8,70z"/>
	<path class="st0" d="M93,127.4c-0.6-0.4-1.2-0.5-1.9-0.5c0,0-0.1,0-0.1,0c0-1.2,0-4.3,0.1-12.8l0.3-0.1c1.6-0.3,2.8-1.8,2.8-3.4
		l0-2.2c0-1.1-0.5-2-1.3-2.7c-0.5-0.4-1.1-0.7-1.8-0.8c0-2.6,0.1-4.4,0.1-4.4c0-1.1-0.5-2.2-1.4-2.9c-0.6-0.4-1.3-0.7-2-0.7
		c-0.4,0-0.8,0.1-1.1,0.2l-7.5,2.6c-1.4,0.5-2.3,1.8-2.3,3.3l-0.1,4.8c-0.4,0.2-0.7,0.5-1,0.8c-0.5-0.3-1.1-0.4-1.6-0.4
		c-0.2,0-0.5,0-0.7,0.1l-7.5,1.5c-0.5,0.1-0.9,0.3-1.3,0.5c-0.4-0.1-0.8-0.1-1.2-0.1c-0.7,0-1.5,0.1-2.4,0.3c-5,1-9,4.7-11.1,10.2
		c-0.1,0.3-0.2,0.6-0.3,0.9c-1.2-4.3-4.3-6.8-8.5-6.8c-0.8,0-1.5,0.1-2.3,0.2c-0.4,0.1-0.8,0.2-1.2,0.3l0.1-6.3
		c0-1.1-0.5-2.2-1.5-2.9c-0.6-0.4-1.3-0.7-2-0.7c-0.4,0-0.8,0.1-1.1,0.2l-7.4,2.6c-1.4,0.5-2.3,1.8-2.3,3.3l0,0.6
		c-0.2-0.3-0.5-0.6-0.9-0.9c-0.6-0.4-1.3-0.7-2-0.7c-0.4,0-0.8,0.1-1.1,0.2l-7.5,2.6c-1.4,0.5-2.3,1.8-2.3,3.3l-0.1,4.8
		c-1.1,0.6-1.7,1.8-1.7,3l0,2.2c0,1.1,0.5,2,1.3,2.7c0.1,0.1,0.3,0.2,0.4,0.3l-0.1,11.8c0,1.6,0.1,3,0.3,4.2c1,5,4.3,8,8.8,8
		c0.7,0,1.4-0.1,2.1-0.2c1.7-0.3,3.2-1,4.6-1.9c0.4,0.2,0.9,0.3,1.4,0.3c0.2,0,0.5,0,0.7-0.1l7.5-1.5c1.6-0.3,2.8-1.8,2.8-3.4l0-3.5
		c1.5,3,4.4,4.8,8,4.8c0.8,0,1.6-0.1,2.5-0.3c2.6-0.5,4.8-1.8,6.5-3.8c1.5,0.8,3.1,1.3,4.9,1.3c0.8,0,1.5-0.1,2.3-0.2
		c2.5-0.5,4.7-1.8,6.5-3.8c1.2,0.7,2.7,1.1,4.2,1.1c0.7,0,1.3-0.1,2-0.2c2.6-0.5,4.9-1.7,6.6-3.5c1.3,0.9,2.8,1.3,4.5,1.3
		c0.7,0,1.3-0.1,2-0.2c5.2-1.1,6.8-5.6,7.2-9.2C94.8,129.4,94.2,128.1,93,127.4z M63.1,125.5l0,5.2c0,0.1,0,0.2,0,0.3
		C62.8,129.3,62.9,127.3,63.1,125.5z"/>
	<path class="st1" d="M121.2,72.1c0-0.5-0.3-1-0.8-1.1c-0.1,0-0.2-0.1-0.4-0.1c-0.4,0-0.7,0.2-1,0.5c-1.4,1.8-3.3,3.2-4.8,3.5
		c-0.2,0-0.4,0.1-0.5,0.1c0,0,0,0,0,0c-0.4,0-1.6,0-2.1-2.7c0-0.2-0.1-0.4-0.1-0.5c2.9-1,5.5-2.8,7.3-5.1c2.1-2.8,3-6,2.3-9.2
		c-0.8-4.1-3.7-5-5.9-5c-0.7,0-1.5,0.1-2.3,0.2c-5.1,1-8.7,4.5-10.5,9.9c-1.5,4.6-1.4,9.5-0.7,12.5c-0.5,1.9-1.1,2.4-2,2.5
		c-0.2,0-0.3,0-0.4,0c0,0,0,0,0,0c-0.3,0-0.5,0-0.7-0.9c-0.2-1.2-0.1-3.2,0-5.4c0.1-2.8,0.3-6-0.2-8.4c-0.8-3.8-3.1-5.8-6.5-5.8
		c-0.6,0-1.2,0.1-1.9,0.2c-1.6,0.3-2.9,1-4.1,2c0.1-9.3,0.5-10.6,1.1-12.7c0.2-0.5-0.1-1.1-0.5-1.4c-0.2-0.1-0.4-0.2-0.6-0.2
		c-0.3,0-0.6,0.1-0.8,0.3c-0.9,0.9-2.8,1.7-5.4,2.2c-3.1,0.6-6.7,0.9-9.5,1.1c-2.1,0.1-3.7,0.2-4.7,0.5C51,52.2,47.5,61.1,48.9,67.9
		c0.7,3.4,2.6,5.1,5.7,5.1c0.7,0,1.4-0.1,2.3-0.3c0.3-0.1,0.6-0.3,0.8-0.6c0.2-0.3,0.2-0.7,0.1-1c-0.1-0.3-0.3-0.5-0.4-0.7
		c-0.2-0.3-0.6-0.8-1-2.5c-1.2-5.8,0.6-9.1,5.9-10.8l-0.4,34.3c0,0.4,0.2,0.7,0.4,0.9c0.2,0.2,0.5,0.3,0.8,0.3c0.1,0,0.2,0,0.2,0
		l7.5-1.5c0.6-0.1,1-0.6,1-1.2l0.4-34.3c0.4,0,0.8,0,1.3-0.1c1.2-0.1,2.3-0.1,3.3-0.2l-0.3,33.1c0,0.4,0.2,0.7,0.4,0.9
		c0.2,0.2,0.5,0.3,0.8,0.3c0.1,0,0.2,0,0.2,0l7.5-1.5c0.6-0.1,1-0.6,1-1.2c-0.2-7-0.3-12.7-0.3-17.5c0.3-2.3,1.1-3.9,2.1-4.1
		c0.1,0,0.1,0,0.2,0c0.4,0,0.7,0.8,0.8,1.3c0.3,1.5,0.2,4,0.1,6.4c-0.1,2.6-0.2,5.4,0.2,7.3c0.7,3.6,3.2,5.8,6.7,5.8
		c0.6,0,1.3-0.1,2-0.2c2.8-0.6,4.9-2.2,6.4-4.9c1.5,1.4,3.4,2.2,5.7,2.2c0,0,0,0,0,0c0.8,0,1.7-0.1,2.6-0.3
		C118.4,81.7,121.3,78,121.2,72.1z M111.3,66.5c0.4-4.8,1.8-8.5,3.1-8.7c0.1,0.1,0.2,0.3,0.3,0.9C115.3,61.7,113.7,65,111.3,66.5z"
		/>
	<g>
		<path class="st1" d="M146.2,76.2c1,0,2.1-0.1,3.2-0.3c5-1,9.3-3.9,12-8c1.5,2.2,3.9,3.3,6.8,3.3c0.9,0,1.8-0.1,2.8-0.3
			c3.5-0.7,6.4-3,8.3-6.5c1.7-3.3,2.4-7.5,2-12.1c0.5-0.2,1-0.5,1.5-0.7l-0.1,15.2c0,0.4,0.2,0.7,0.4,0.9c0.2,0.2,0.5,0.3,0.8,0.3
			c0.1,0,0.2,0,0.2,0l7.5-1.5c0.6-0.1,1-0.6,1-1.2l0.1-17.3c0.2-2.5,1.1-4.3,2.1-4.5c0.1,0,0.1,0,0.2,0c0.5,0,0.7,0.8,0.8,1.3
			c0.3,1.5,0.2,4,0.1,6.4c-0.1,2.6-0.2,5.4,0.2,7.3c0.7,3.6,3.2,5.8,6.7,5.8c0.1,0,0.3,0,0.5,0c-1.5,1.7-2.3,3.8-1.7,6.6
			c0.7,3.2,3.6,5.4,7.1,5.4c0.5,0,1.1-0.1,1.6-0.2c6.9-1.4,8.4-7.2,8.4-11.9l0.2-28.2l2.9-0.6c0.6-0.1,1-0.6,1-1.2l-0.1-2.1
			c0-0.4-0.2-0.7-0.5-0.9c-0.2-0.2-0.5-0.3-0.7-0.3c-0.1,0-0.2,0-0.2,0l-2.3,0.5l0-2.8c0-2.2,0.7-3.6,1.8-3.8c0.1,0,0.2,0,0.3,0
			c0.5,0,0.6,0.3,0.6,0.5c0.1,0.3,0.1,0.7,0.1,1.1l0,0.2c0,0.3,0.2,0.6,0.5,0.8c0.2,0.2,0.5,0.2,0.7,0.2c0.1,0,0.2,0,0.2,0l2.4-0.5
			c0.6-0.1,1-0.6,1-1.2c0-0.7-0.1-1.5-0.3-2.4c-0.7-3.2-3.6-5.4-7.1-5.4c-0.5,0-1.1,0.1-1.6,0.2c-3.9,0.8-8.5,3.5-8.6,11.9
			l-0.2,21.4c-0.6,3-1.1,4.2-2.5,4.4c-0.2,0-0.3,0-0.4,0c0,0,0,0,0,0c-0.3,0-0.5,0-0.7-0.9c-0.2-1.2-0.1-3.2,0-5.4
			c0.1-2.8,0.3-6-0.2-8.4c-0.8-3.8-3.1-5.8-6.5-5.8c-0.6,0-1.2,0.1-1.9,0.2c-1.6,0.3-2.9,1-4.1,2c-0.1-0.2-0.2-0.3-0.3-0.4
			c-0.2-0.2-0.5-0.3-0.8-0.3c-0.1,0-0.2,0-0.2,0l-7.5,1.5c-0.6,0.1-1,0.6-1,1.2l-0.1,6.6c-0.9,0.5-1.7,0.9-2.4,1.2
			c-0.9-3.3-3-6.8-7.4-6.8c-0.6,0-1.3,0.1-2,0.2c-10.6,2.2-12.7,14.2-11.6,21.7c-1.7,2.8-4.5,4.8-7.4,5.4c-0.5,0.1-1,0.2-1.5,0.2
			c-1.9,0-3.8-0.8-5-6.5c-1-5-1-11.1,0-16.1c1-5,2.9-8.3,5.1-8.7c0.2,0,0.3-0.1,0.5-0.1c1.2,0,1.6,1.2,1.7,1.7c0.3,1.6-0.4,3.5-1,4
			c-0.3,0.2-0.5,0.6-0.5,1c0,0.4,0.2,0.7,0.5,0.9c0.9,0.7,2,1.1,3.1,1.1c0.4,0,0.7,0,1.1-0.1c3-0.6,4.4-3.2,3.6-6.8
			c-0.9-4.2-3.8-6.6-8.3-6.6c-1,0-2,0.1-3,0.3c-6.6,1.3-11.1,6.1-13.2,13.8c-1.8,6.5-1.4,13.7-0.5,18.4
			C136.3,72.2,140.2,76.2,146.2,76.2z M172.6,50.9c0.3,1.6,1.1,2.3,1.9,2.6c0.2,5.8-1.5,9.5-2.9,9.7c-0.3,0.1-0.5,0.1-0.7,0.1
			c-0.4,0-0.8,0-1.4-2.8c-0.5-2.4-0.4-6,0.2-9c0.6-3,1.7-5.1,2.8-5.3c0.1,0,0.2,0,0.3,0c0.2,0,0.5,0.3,0.7,0.9
			C172.6,48.1,172.3,49.5,172.6,50.9z M207.4,69.4c-0.4,0-0.8-0.3-0.8-0.4c-0.3-1.4,0.4-2.6,2.2-4l0,0.9c0,2.4-0.7,3.4-1.2,3.5
			C207.5,69.4,207.5,69.4,207.4,69.4z"/>
		<path class="st1" d="M242.5,52.6l0,1.9c0,0.4,0.2,0.7,0.4,0.9c0.2,0.2,0.5,0.3,0.8,0.3c0.1,0,0.2,0,0.2,0l7.5-1.5
			c0.6-0.1,1-0.6,1-1.2l0.1-20.1c0.7-1,1.4-1.7,2.1-2c0,0.1,0.1,0.2,0.1,0.3c0.4,0.8,1,2.4,3,2.4c0.3,0,0.6,0,0.8-0.1
			c1.9-0.4,2.9-1.5,3.4-2.4c0.6-1.1,0.8-2.3,0.5-3.6c-0.5-2.5-2.4-4.2-4.8-4.2c-0.3,0-0.7,0-1,0.1c-1.4,0.3-2.7,1.1-4.1,2.5
			c0-0.3-0.2-0.6-0.4-0.9c-0.2-0.2-0.5-0.3-0.8-0.3c-0.1,0-0.2,0-0.2,0l-7.5,1.5c-0.6,0.1-1,0.6-1,1.2l-0.1,17
			c-2,3.5-3.8,5.6-7.1,6.2c-0.4,0.1-0.8,0.1-1.1,0.1c-0.6,0-1.5,0-2.1-2.8c-0.1-0.3-0.1-0.6-0.2-1c2.9-1,5.5-2.8,7.2-5.1
			c2.1-2.8,3-6,2.3-9.1c-0.8-4.1-3.7-5-5.9-5c-0.7,0-1.5,0.1-2.3,0.2c-5.1,1-8.7,4.5-10.5,9.9c-1.5,4.6-1.4,9.5-0.7,12.6
			c1.3,6.5,5.3,7.8,8.5,7.8c0,0,0,0,0,0c0.8,0,1.7-0.1,2.7-0.3C237.1,57.5,240.1,55.6,242.5,52.6z M231.9,41.9
			c0.3-4.9,1.8-8.4,3-8.7c0.1,0.1,0.2,0.3,0.3,0.9C235.9,37.1,234.4,40.3,231.9,41.9z"/>
		<path class="st1" d="M336,37C336,37,336,37,336,37c0.8,0,1.7-0.1,2.6-0.3c5.6-1.1,8.5-4.8,8.4-10.7c0-0.5-0.3-1-0.8-1.1
			c-0.1,0-0.2-0.1-0.4-0.1c-0.4,0-0.7,0.2-1,0.5c-1.4,1.8-3.3,3.2-4.8,3.5c-0.2,0-0.4,0.1-0.5,0.1c-0.4,0-1.6,0-2.1-2.7
			c0-0.2-0.1-0.4-0.1-0.5c2.9-1,5.5-2.8,7.3-5.1c2.1-2.8,3-6,2.3-9.2c-0.8-4.1-3.7-5-5.9-5c-0.7,0-1.5,0.1-2.3,0.2
			c-4.9,1-8.5,4.3-10.3,9.5c-1.5,4.2-1.5,8.8-1.1,11.9c-1.7,2.8-3.4,4.6-6.5,5.2c-0.4,0.1-0.8,0.1-1.1,0.1c-0.7,0-1.7,0-2.3-2.8
			c-0.5-2.7-0.5-6.4,0.1-9.5c0.7-3.7,1.9-5.2,2.7-5.4c0.1,0,0.1,0,0.1,0c0,0,0,0,0,0c0,0,0,0,0,0c0,0,0.2,0.1,0.3,0.7
			c0.1,0.7,0.1,2.2-0.1,3.3c-0.1,0.6,0.2,1.2,0.7,1.4c0.6,0.2,1.2,0.4,1.9,0.4c0.3,0,0.7,0,1-0.1c1.1-0.2,2.1-1.1,2.6-2.4
			c0.4-1.1,0.5-2.5,0.2-4c-0.6-3-2.7-4.6-5.8-4.6c-0.7,0-1.5,0.1-2.3,0.3c-11.3,2.3-12.4,16-11.2,22.4c-0.5,2-1.1,2.5-2.1,2.6
			c-0.2,0-0.3,0-0.4,0c0,0,0,0,0,0c-0.3,0-0.5,0-0.7-0.9c-0.2-1.2-0.1-3.2,0-5.4c0.1-2.8,0.3-6-0.2-8.4c-0.8-3.8-3.1-5.8-6.5-5.8
			c-0.6,0-1.2,0.1-1.9,0.2c-1.6,0.3-2.9,1-4.1,2c-0.1-0.2-0.2-0.3-0.3-0.4c-0.2-0.2-0.5-0.3-0.8-0.3c-0.1,0-0.2,0-0.2,0l-7.5,1.5
			c-0.6,0.1-1,0.6-1,1.2l-0.1,17c-2,3.5-3.8,5.6-7.1,6.2c-0.4,0.1-0.8,0.1-1.1,0.1c0,0,0,0,0,0c-0.6,0-1.5,0-2.1-2.8
			c-0.1-0.3-0.1-0.6-0.2-1c2.9-1,5.5-2.8,7.2-5.1c2.1-2.8,3-6,2.3-9.1c-0.8-4.1-3.7-5-5.9-5c-0.7,0-1.5,0.1-2.3,0.2
			c-5.1,1-8.7,4.5-10.5,9.9c-1.5,4.6-1.4,9.5-0.7,12.6c1.3,6.5,5.3,7.8,8.5,7.8c0.8,0,1.7-0.1,2.7-0.3c3.6-0.7,6.6-2.6,9-5.6l0,1.9
			c0,0.4,0.2,0.7,0.4,0.9c0.2,0.2,0.5,0.3,0.8,0.3c0.1,0,0.2,0,0.2,0l7.5-1.5c0.6-0.1,1-0.6,1-1.2l0.1-17.3c0.2-2.5,1.1-4.3,2.1-4.5
			c0.1,0,0.1,0,0.2,0c0.4,0,0.7,0.8,0.8,1.3c0.3,1.5,0.2,4,0.1,6.4c-0.1,2.6-0.2,5.4,0.2,7.3c0.7,3.6,3.2,5.8,6.7,5.8
			c0.6,0,1.3-0.1,2-0.2c2.8-0.6,5-2.2,6.4-4.9c1.5,1.4,3.4,2.2,5.7,2.2c0.8,0,1.7-0.1,2.7-0.3c4.2-0.9,7.7-3.3,10.3-7.3
			C330.7,35.8,333,37,336,37z M337.1,20.5c0.4-4.8,1.8-8.5,3.1-8.7c0.1,0.1,0.2,0.3,0.3,0.9C341.1,15.7,339.6,19,337.1,20.5z
			 M271.3,33.9c0.3-4.9,1.8-8.4,3-8.7c0.1,0.1,0.2,0.3,0.3,0.9C275.2,29.1,273.7,32.3,271.3,33.9z"/>
	</g>
	<path class="st1" d="M91.8,129.3c-0.2-0.1-0.4-0.2-0.6-0.2c-0.2,0-0.4,0.1-0.6,0.2c-0.2,0.1-0.7,0.2-0.9,0.3c-0.1,0-0.2,0-0.3,0
		c-0.2,0-0.3,0-0.4-0.6c-0.1-0.4-0.1-0.9-0.1-1.6c0,0,0.1-15.3,0.1-15.3l2.2-0.4c0.6-0.1,1-0.6,1-1.2l0-2.2c0-0.4-0.2-0.7-0.4-0.9
		c-0.2-0.2-0.5-0.3-0.8-0.3c-0.1,0-0.2,0-0.2,0l-1.6,0.3c0-4.1,0.1-7,0.1-7c0-0.4-0.2-0.8-0.5-1c-0.2-0.2-0.5-0.2-0.7-0.2
		c-0.1,0-0.3,0-0.4,0.1l-7.5,2.6c-0.5,0.2-0.8,0.6-0.8,1.1l-0.1,6.5l-0.8,0.2c-0.6,0.1-1,0.6-1,1.2l0,2.2c0,0.4,0.2,0.7,0.4,0.9
		c0.2,0.2,0.5,0.3,0.8,0.3c0.1,0,0.2,0,0.2,0l0.2-0.1l-0.1,13.1c-0.1,0.2-0.2,0.4-0.2,0.6c-0.1,1.2-0.5,4-2.3,4.3
		c-0.2,0-0.4,0.1-0.6,0.1c0,0,0,0,0,0c-0.3,0-0.4,0-0.5-0.6c-0.1-0.4-0.1-0.9-0.1-1.4l0.2-18.4c0-0.4-0.2-0.7-0.4-0.9
		c-0.2-0.2-0.5-0.3-0.8-0.3c-0.1,0-0.2,0-0.2,0l-7.5,1.5c-0.4,0.1-0.8,0.4-0.9,0.8c-0.5-0.2-1.2-0.4-2-0.4c-0.6,0-1.2,0.1-1.9,0.2
		c-9.4,1.9-12.2,14.2-10.6,22.2c-0.5,2-1.1,2.5-2.1,2.6c-0.2,0-0.3,0-0.4,0c0,0,0,0,0,0c-0.3,0-0.5,0-0.7-0.9
		c-0.2-1.2-0.1-3.2,0-5.4c0.1-2.8,0.3-6-0.2-8.4c-0.8-3.8-3.1-5.8-6.5-5.8c-0.6,0-1.2,0.1-1.9,0.2c-1.5,0.3-2.8,0.9-4,1.9l0.1-10.2
		c0-0.4-0.2-0.8-0.5-1c-0.2-0.1-0.5-0.2-0.7-0.2c-0.1,0-0.3,0-0.4,0.1l-7.5,2.6c-0.5,0.2-0.8,0.6-0.8,1.1l-0.2,26.9c0,0,0,0,0,0
		c-0.2,2.3-1.4,4.1-2.8,4.4c-0.2,0-0.4,0.1-0.6,0.1c0,0,0,0,0,0c-0.3,0-0.4,0-0.5-0.6c-0.1-0.4-0.1-0.9-0.1-1.4l0.1-15.2l2.2-0.4
		c0.6-0.1,1-0.6,1-1.2l0-2.2c0-0.4-0.2-0.7-0.4-0.9c-0.2-0.2-0.5-0.3-0.8-0.3c-0.1,0-0.2,0-0.2,0l-1.6,0.3l0.1-7
		c0-0.4-0.2-0.8-0.5-1c-0.2-0.1-0.5-0.2-0.7-0.2c-0.1,0-0.3,0-0.4,0.1l-7.5,2.6c-0.5,0.2-0.8,0.6-0.8,1.1l-0.1,6.5l-0.8,0.2
		c-0.6,0.1-1,0.6-1,1.2l0,2.2c0,0.4,0.2,0.7,0.4,0.9c0.2,0.2,0.5,0.3,0.8,0.3c0.1,0,0.2,0,0.2,0l0.2-0.1l-0.1,13.7
		c0,1.5,0.1,2.7,0.3,3.7c0.8,3.9,3.2,6.2,6.6,6.2c0.5,0,1.1-0.1,1.6-0.2c1.5-0.3,3.5-1,5.2-2.7c0,0.3,0.2,0.5,0.4,0.7
		c0.2,0.2,0.5,0.3,0.8,0.3c0.1,0,0.2,0,0.2,0l7.5-1.5c0.6-0.1,1-0.6,1-1.2l0.1-17.3c0.2-2.5,1.1-4.3,2.1-4.5c0.1,0,0.1,0,0.2,0
		c0.5,0,0.7,0.8,0.8,1.3c0.3,1.5,0.2,4,0.1,6.4c-0.1,2.6-0.2,5.4,0.2,7.3c0.7,3.6,3.2,5.8,6.7,5.8c0.6,0,1.3-0.1,2-0.2
		c2.8-0.6,4.9-2.2,6.4-4.9c1.4,1.5,3.3,2.3,5.4,2.3c0.6,0,1.2-0.1,1.8-0.2c2.7-0.6,5-2.2,6.6-4.9c1.1,1.4,2.7,2.2,4.6,2.2
		c0.5,0,1-0.1,1.6-0.2c3-0.6,5.2-2.1,6.8-4.6c1.1,1.5,2.8,2.4,4.7,2.4c0.5,0,1-0.1,1.6-0.2c3.2-0.6,4.9-3,5.4-7.2
		C92.4,130,92.2,129.6,91.8,129.3z M62.9,134.9c-0.2,0-0.4,0.1-0.5,0.1c-0.8,0-1.3-1.7-1.5-2.6c-0.5-2.4-0.4-6,0.2-8.8
		c0.7-3.1,1.8-5.1,3.3-5.4c0.1,0,0.2,0,0.3,0c0.5,0,0.7,0.4,0.8,0.6l-0.1,12C65.3,133.3,63.8,134.7,62.9,134.9z"/>
	<path class="st1" d="M144.7,128.4c-0.2-0.1-0.3-0.1-0.5-0.1c-0.2,0-0.5,0.1-0.7,0.2c-1.1,0.7-2.3,1.2-3.7,1.5
		c-0.8,0.2-1.6,0.2-2.5,0.2c-2.9,0-5.7-0.9-8.5-1.7c-2.2-0.7-4.3-1.3-6.4-1.6l0.4-37.6c0-0.3-0.1-0.7-0.4-0.9
		c-0.2-0.2-0.5-0.3-0.8-0.3c0,0-0.1,0-0.1,0c-0.7,0.1-1.4,0.2-2.2,0.3c-4.5,0.9-8.9,3.5-12.1,7c-3.4,3.7-4.9,8.1-4.2,11.8
		c0.6,3.2,2.6,4.8,5.7,4.8c0.7,0,1.4-0.1,2.2-0.2c0.4-0.1,0.7-0.4,0.9-0.7c0.1-0.4,0.1-0.8-0.1-1.1c0-0.1-0.1-0.1-0.2-0.2
		c-0.3-0.4-0.7-0.9-1.1-2.7c-0.8-3.9,0.1-7.3,2.5-9.9l-0.4,34.8c0,0.4,0.2,0.8,0.5,1c0.2,0.2,0.5,0.2,0.7,0.2c0.1,0,0.3,0,0.4-0.1
		c0.3-0.1,0.6-0.2,1-0.3c0.6-0.1,1.3-0.2,2-0.2c3.8,0,7.8,2,11.7,4c3.5,1.8,6.9,3.5,10,3.5c0.5,0,1,0,1.5-0.1c4.8-1,5.4-6.3,5-10.6
		C145.4,129,145.1,128.6,144.7,128.4z"/>
	<path class="st1" d="M209.3,97.2c-0.7-2.6-1.9-6.4-3.7-13.9c-0.1-0.3-0.3-0.6-0.6-0.8c-0.2-0.1-0.4-0.1-0.6-0.1
		c-0.1,0-0.3,0-0.4,0.1l-7.5,2.6c-0.4,0.2-0.8,0.5-0.8,1c-0.5,4.7-1.3,10.3-3.1,16c-1.2,1-1.9,2.6-2,4.4c-1.8,2.6-3.5,3.9-6,4.4
		c-0.4,0.1-0.8,0.1-1.1,0.1c0,0,0,0,0,0c-0.6,0-1.5,0-2.1-2.8c-0.1-0.3-0.1-0.6-0.2-1c2.9-1,5.5-2.8,7.2-5.1c2.1-2.8,3-6,2.3-9.1
		c-0.8-4.1-3.7-5-5.9-5c-0.7,0-1.5,0.1-2.3,0.2c-5.1,1-8.7,4.5-10.5,9.9c-0.4,1.1-0.6,2.2-0.8,3.3c-0.1-2.2-0.3-4.1-0.6-5.7
		c-0.6-3.1-2.3-4.9-4.6-4.9c-0.3,0-0.6,0-1,0.1c-2.7,0.5-4.1,2.5-3.6,4.9c0.3,1.6,1.6,3.3,3.3,3.3c0.2,0,0.4,0,0.5-0.1
		c0.1,0,0.2,0,0.4-0.1c0.6,6-1.2,15.3-4.7,16c-0.1,0-0.2,0-0.3,0c0,0,0,0,0,0c-0.2,0-0.3,0-0.4-0.4c0-0.2-0.1-0.7-0.1-1.7l0.1-18.4
		c0-0.4-0.2-0.7-0.4-0.9c-0.2-0.2-0.5-0.3-0.8-0.3c-0.1,0-0.2,0-0.2,0l-7.5,1.5c-0.6,0.1-1,0.6-1,1.2l0,6.6
		c-0.9,0.5-1.7,0.9-2.4,1.2c-1.6-5.6-4.8-6.8-7.4-6.8c-0.6,0-1.3,0.1-2,0.2c-5.1,1-8.7,4.5-10.6,10c-1.6,4.6-1.4,9.7-0.8,12.6
		c1,5,4.1,7.7,8.6,7.7c0.9,0,1.8-0.1,2.8-0.3c3.5-0.7,6.4-3,8.3-6.5c1.7-3.3,2.4-7.5,2-12.1c0.5-0.2,1-0.5,1.5-0.7l0,6.5
		c0,1.2,0.2,2.3,0.3,2.8c0.8,3.9,3.2,6,6.9,6c0,0,0,0,0,0c0.7,0,1.4-0.1,2.2-0.2c5.1-1,8.8-5,10.6-11.4c0.4-1.3,0.6-2.6,0.8-3.9
		c0.1,1.2,0.2,2.2,0.4,3.1c1.3,6.5,5.3,7.8,8.5,7.8c0.8,0,1.7-0.1,2.7-0.3c3.9-0.8,7.1-2.9,9.6-6.4c1.5,1.8,3.8,2.9,6.4,2.9
		c0.8,0,1.5-0.1,2.3-0.2c5.6-1.1,10.9-5.5,9.5-12.5C210.2,100.4,209.9,99.2,209.3,97.2z M137.5,107.8c0.6-3,1.7-5.1,2.8-5.3
		c0.1,0,0.2,0,0.3,0c0.2,0,0.5,0.3,0.7,0.9c-0.8,0.9-1.2,2.2-0.9,3.7c0.3,1.6,1.1,2.3,1.9,2.6c0.2,5.8-1.5,9.5-2.9,9.7
		c-0.3,0.1-0.5,0.1-0.7,0.1c-0.4,0-0.8,0-1.4-2.8C136.7,114.4,136.8,110.8,137.5,107.8z M197.4,108.4c-0.3,0-0.6,0-1-0.4
		c2-0.5,2.9-2.6,2.6-4.4c-0.2-0.8-0.6-1.5-1.3-2c0.4-1.4,0.8-2.9,1.1-4.4c0.4,1.2,0.7,2.1,0.9,2.9c0.5,1.6,0.8,2.6,1.1,3.8
		c0.5,2.4-0.4,3.9-2.6,4.3C197.8,108.4,197.6,108.4,197.4,108.4z M181.2,101.9c0.3-4.9,1.8-8.4,3-8.7c0.1,0.1,0.2,0.3,0.3,0.9
		C185.1,97.1,183.6,100.3,181.2,101.9z"/>
	<path class="st1" d="M254.9,61.3c-0.2-0.2-0.5-0.4-0.9-0.4c-0.1,0-0.2,0-0.2,0l-3.4,0.7c-0.5,0.1-0.8,0.5-0.9,0.9l-3.2,16.3
		l-6.7-14.3c-0.2-0.4-0.6-0.7-1.1-0.7c-0.1,0-0.1,0-0.2,0c-0.7,0.1-1.4,0.2-2.2,0.3c-4.5,0.9-8.9,3.5-12.1,7
		c-3.4,3.7-4.9,8.1-4.2,11.8c0.6,3.2,2.6,4.8,5.7,4.8c0.7,0,1.4-0.1,2.2-0.2c0.4-0.1,0.7-0.3,0.9-0.7c0.2-0.4,0.1-0.8-0.1-1.1
		c-0.1-0.2-0.2-0.3-0.3-0.4c-0.3-0.4-0.7-0.9-1-2.7c-0.9-4.6,0.4-8.4,3.7-11l8.2,16.9l-0.2,16.4c0,0.4,0.2,0.7,0.4,0.9
		c0.2,0.2,0.5,0.3,0.8,0.3c0.1,0,0.2,0,0.2,0l8.3-1.7c0.6-0.1,1-0.6,1-1.2l0.2-16.5l5.4-24.5C255.3,62,255.1,61.6,254.9,61.3z"/>
	<path class="st1" d="M302.8,86.2c-0.2-0.1-0.4-0.1-0.5-0.1c-0.2,0-0.4,0.1-0.6,0.2c-0.1,0-0.1,0.1-0.2,0.1
		c-0.3,0.2-0.4,0.3-1.1,0.4c-0.2,0-0.4,0.1-0.6,0.1c-0.3,0-0.4,0-0.5-0.6c-0.1-0.4-0.1-0.9-0.1-1.4c0,0,0.1-18.4,0.1-18.4
		c0-0.4-0.2-0.7-0.4-0.9c-0.2-0.2-0.5-0.3-0.8-0.3c-0.1,0-0.2,0-0.2,0l-7.5,1.5c-0.6,0.1-1,0.6-1,1.2l-0.1,17.3
		c-0.1,1.5-0.6,3.9-2.2,4.3c0,0-0.1,0-0.1,0c-0.1,0-0.4-0.4-0.5-1c-0.1-0.3-0.1-0.7-0.1-1c0,0,0,0,0,0l0.1-18.4
		c0-0.4-0.2-0.7-0.4-0.9c-0.2-0.2-0.5-0.3-0.8-0.3c-0.1,0-0.2,0-0.2,0l-7.5,1.5c-0.6,0.1-1,0.6-1,1.2l-0.1,6.6
		c-0.9,0.5-1.7,0.9-2.4,1.2c-0.9-3.3-3-6.8-7.4-6.8c-0.6,0-1.3,0.1-2,0.2c-11.6,2.4-12.7,16.2-11.4,22.6c1,5,4.1,7.7,8.6,7.7
		c0.9,0,1.8-0.1,2.8-0.3c3.5-0.7,6.4-3,8.3-6.5c1.7-3.3,2.4-7.5,2-12.1c0.5-0.2,1-0.5,1.5-0.7l0,5.5c0,1.5,0.1,2.7,0.3,3.7
		c0.8,3.9,3.2,6.2,6.6,6.2c0.5,0,1.1-0.1,1.6-0.2c2.9-0.6,5-2.2,6.5-4.9c1.2,1.6,2.8,2.4,4.8,2.4c0.5,0,0.9,0,1.4-0.1
		c3.9-0.8,6.1-3.9,5.6-7.8C303.4,86.7,303.1,86.3,302.8,86.2z M263.5,82.3c0.6-3,1.7-5.1,2.8-5.3c0.1,0,0.2,0,0.3,0
		c0.2,0,0.5,0.3,0.7,0.9c-0.8,0.9-1.2,2.2-0.9,3.7c0.3,1.6,1.1,2.3,1.9,2.6c0.2,5.8-1.5,9.5-2.9,9.7c-0.3,0.1-0.5,0.1-0.7,0.1
		c-0.4,0-0.8,0-1.4-2.8C262.8,88.9,262.9,85.3,263.5,82.3z"/>
	<path class="st1" d="M424,61.4c-0.2-0.1-0.3-0.1-0.5-0.1c-0.2,0-0.5,0.1-0.7,0.2c0,0-0.1,0.1-0.1,0.1c-0.2,0.1-0.3,0.2-1.2,0.4
		c-0.2,0-0.3,0.1-0.4,0.1c-0.3,0-0.4,0-0.6-0.6c-0.1-0.3-0.1-0.7-0.1-1.1c0-0.1,0-0.2,0-0.3l0-2.7c0-0.7-0.1-1.5-0.2-2.3
		c-0.7-3.6-3.1-5.8-6.3-6l6.3-6.6c0.4-0.4,0.4-1,0.2-1.4c-0.2-0.4-0.6-0.6-1.1-0.6c-0.1,0-0.2,0-0.2,0l-5.1,1
		c-0.3,0.1-0.5,0.2-0.7,0.4l-6.2,7.4l0.1-15.7c0-0.4-0.2-0.8-0.5-1c-0.2-0.1-0.5-0.2-0.7-0.2c-0.1,0-0.3,0-0.4,0.1l-7.5,2.6
		c-0.5,0.2-0.8,0.6-0.8,1.1l-0.2,26.7c-2,3.5-3.8,5.6-7.1,6.3c-0.4,0.1-0.8,0.1-1.1,0.1c0,0,0,0,0,0c-0.7,0-1.7,0-2.3-2.8
		c-0.5-2.7-0.5-6.4,0.1-9.5c0.7-3.7,1.9-5.2,2.7-5.4c0.1,0,0.1,0,0.1,0c0,0,0,0,0,0c0,0,0,0,0,0c0,0,0.2,0.1,0.3,0.7
		c0.1,0.7,0.1,2.2-0.1,3.3c-0.1,0.6,0.2,1.2,0.7,1.4c0.6,0.2,1.2,0.4,1.9,0.4c0.3,0,0.7,0,1-0.1c2.2-0.5,3.4-3.2,2.8-6.3
		c-0.6-3-2.7-4.6-5.8-4.6c-0.7,0-1.5,0.1-2.3,0.3c-11.4,2.3-12.4,16.1-11.2,22.5c0,0,0,0.1,0,0.1c-0.3,1-0.9,2.2-2,2.4
		c-0.2,0-0.4,0.1-0.6,0.1c0,0,0,0,0,0c-0.3,0-0.4,0-0.5-0.6c-0.1-0.4-0.1-0.9-0.1-1.4l0.2-18.4c0-0.4-0.2-0.7-0.4-0.9
		c-0.2-0.2-0.5-0.3-0.8-0.3c-0.1,0-0.2,0-0.2,0l-7.5,1.5c-0.4,0.1-0.8,0.4-0.9,0.8c-0.5-0.2-1.2-0.4-2-0.4c-0.6,0-1.2,0.1-1.9,0.2
		c-7.6,1.6-10.9,9.8-11,17.2c-0.1-0.4-0.1-0.7-0.2-1c-0.8-4.1-3.2-6.8-6.5-7.7c2-2.5,2.8-5.7,2.2-8.6c-0.7-3.5-3.8-7.3-10.3-7.3
		c-1.2,0-2.5,0.1-3.9,0.4c-10.5,2.1-18.5,11.2-16.9,19c0.6,3.2,2.6,4.8,5.7,4.8c0.7,0,1.4-0.1,2.2-0.2c0.4-0.1,0.7-0.3,0.9-0.7
		c0.2-0.4,0.1-0.8-0.1-1.1c-0.1-0.2-0.2-0.3-0.3-0.4c-0.3-0.4-0.7-0.9-1-2.6c-0.8-4.1,0.3-7.5,2.5-10l-0.3,34.1
		c0,0.4,0.2,0.7,0.4,0.9c0.2,0.2,0.5,0.3,0.8,0.3c0.1,0,0.2,0,0.2,0l7.5-1.5c0.6-0.1,1-0.6,1-1.2l0-1.4c0.9,1.4,2.4,2.1,4.5,2.1
		c0.7,0,1.4-0.1,2.1-0.2c4.2-0.9,7.2-3.7,8.7-8.2c0.6-1.9,0.9-3.9,0.9-5.8c0.1,0.5,0.1,1,0.2,1.5c0.6,2.7,1.6,4.8,3.1,6.2
		c1.4,1.2,3.1,1.9,5,1.9c0.6,0,1.2-0.1,1.8-0.2c2.7-0.6,5-2.2,6.6-4.9c1.1,1.4,2.7,2.2,4.6,2.2c0.5,0,1-0.1,1.6-0.2
		c3.1-0.6,5.5-2.3,7.1-5c1.5,1.6,3.5,2.4,5.9,2.4c0.8,0,1.7-0.1,2.7-0.3c3.6-0.7,6.6-2.6,9-5.6l0,1.9c0,0.4,0.2,0.7,0.4,0.9
		c0.2,0.2,0.5,0.3,0.8,0.3c0.1,0,0.2,0,0.2,0l7.5-1.5c0.6-0.1,1-0.6,1-1.2l0.1-12.9c1-1.2,1.8-1.8,2.5-2c0.1,0,0.2,0,0.2,0
		c0.3,0,0.6,0.4,0.7,1.2c0.1,0.6,0.2,1.2,0.2,1.7c0,0,0,2.1,0,2.1c0,1.1,0.1,2.1,0.3,3c0.8,3.7,3.2,5.8,6.8,5.8
		c0.7,0,1.5-0.1,2.3-0.2c2-0.4,5.3-3.3,4.7-7.6C424.7,62,424.4,61.6,424,61.4z M333.5,61.3l0.1-10.3c0-0.4-0.2-0.8-0.5-1
		c-0.2-0.1-0.5-0.2-0.7-0.2c-0.1,0-0.3,0-0.4,0.1l-6.2,2.1c1.4-1,3.1-1.7,4.8-2c0.7-0.1,1.4-0.2,2-0.2c3.2,0,4.2,1.9,4.6,3.5
		C337.8,56.7,335.8,60.1,333.5,61.3z M333.4,66.6c0.6-0.2,1.1-0.3,1.4-0.4c0.3-0.1,0.7-0.1,1-0.1c0.7,0,2.9,0,3.9,4.7
		c0.4,2.1,0.5,4.3,0.1,5.9c-0.4,1.8-1.2,2.8-2.4,3.1c-0.2,0-0.3,0.1-0.5,0.1c-0.7,0-1.4-0.3-2.4-1c-0.2-0.1-0.4-0.2-0.7-0.2
		c-0.2,0-0.3,0-0.5,0.1L333.4,66.6z M361.5,74.3c-0.2,0-0.4,0.1-0.5,0.1c-0.8,0-1.3-1.7-1.5-2.6c-1-4.9,0.2-13.6,3.4-14.2
		c0.1,0,0.2,0,0.3,0c0.5,0,0.7,0.4,0.8,0.6l-0.1,12C363.9,72.7,362.4,74.1,361.5,74.3z"/>
	<path class="st1" d="M427.5,55.3c0.2,0.2,0.5,0.3,0.7,0.3c0.1,0,0.2,0,0.2,0l4.4-0.9c0.5-0.1,0.9-0.6,1-1.1l1.8-25.6
		c0-0.4-0.1-0.7-0.4-1c-0.2-0.2-0.5-0.3-0.8-0.3c-0.1,0-0.2,0-0.2,0l-7.5,1.5c-0.6,0.1-1,0.6-1,1.2l1.3,25
		C427.1,54.7,427.3,55.1,427.5,55.3z"/>
	<path class="st1" d="M436,60.9c-0.5-2.5-2.7-4.3-5.2-4.3c-0.4,0-0.7,0-1.1,0.1c-1.4,0.3-2.6,1.1-3.4,2.3c-0.8,1.2-1.1,2.6-0.8,4.1
		c0.5,2.5,2.8,4.3,5.3,4.3c0.4,0,0.7,0,1.1-0.1C434.7,66.7,436.6,63.8,436,60.9z"/>
	<path class="st2" d="M119.9,72.1c-1.4,1.8-3.6,3.6-5.5,4c-2.6,0.5-3.7-1.5-4.1-3.6c-0.1-0.6-0.2-1.1-0.2-1.6
		c6.1-1.6,10.9-7.2,9.7-13.1c-0.5-2.6-2.1-4.7-6.7-3.8c-10.6,2.2-11.5,15.2-10.3,21.1c0,0.1,0,0.2,0.1,0.3c-0.5,2-1.2,3.3-3,3.7
		c-1.6,0.3-2.3-0.5-2.5-1.8c-0.6-2.9,0.6-9.7-0.2-13.9c-0.8-4.1-3.6-5.4-6.9-4.7c-1.7,0.3-3.8,1.3-5.5,4.3c0-12.3,0.4-13.9,1.2-16.5
		c-1.3,1.2-3.5,2-6,2.5c-5.3,1.1-11.9,1-14.3,1.5c-12.8,2.6-16.9,10.3-15.5,17.2c0.8,3.7,3,4.6,6.6,3.9c-0.1-0.5-0.9-0.7-1.4-3.4
		c-1.7-8.1,2.5-11.3,8.3-12.7l-0.4,35.9l7.5-1.5l0.4-35.4c2.4-0.2,4.9-0.2,7-0.5l-0.4,34.5l7.5-1.5c-0.2-7.1-0.3-12.9-0.3-17.6
		c0.3-2.6,1.2-4.9,3-5.3c1.2-0.3,2.1,0.6,2.4,2.3c0.7,3.3-0.4,10.2,0.4,13.7c0.6,3,2.8,5.5,7.3,4.6c2.1-0.4,4.7-1.6,6.4-6
		c1.8,2.9,4.8,3.7,8.4,3C116.7,80.8,120.1,78.2,119.9,72.1z M110,68.3c0.1-5.1,1.5-11.2,4.1-11.7c1-0.2,1.5,0.6,1.7,1.9
		C116.7,62.7,114,67.3,110,68.3z"/>
	<path class="st2" d="M225.1,23.8c-0.7-3.4-4.1-5-7.2-4.3c-3.4,0.7-7.6,3-7.6,10.7l-0.2,21.6l0,0c-0.6,2.9-1.1,5-3.4,5.4
		c-1.6,0.3-2.2-0.5-2.5-1.8c-0.6-2.9,0.6-9.7-0.2-13.9c-0.8-4.1-3.6-5.4-6.9-4.7c-1.6,0.3-3.8,1.2-5.5,4.1l0-2.8l-7.5,1.5L184,47
		c-1.3,0.9-2.7,1.6-3.9,1.8c-0.2,0-0.4,0.1-0.6,0.1c-1.1-5.4-3.9-7.7-8.3-6.8c-10.4,2.1-11.6,14.6-10.5,20.7
		c-1.8,3.2-4.9,5.6-8.4,6.3c-5,1-6.9-2.3-7.9-7.2c-2.1-10.4,0.1-25,6.1-26.3c2-0.4,3.3,0.9,3.6,2.6c0.4,1.9-0.3,4.3-1.4,5.2
		c1.2,0.9,2.4,0.9,3.2,0.7c2.6-0.5,3.2-2.8,2.7-5.4c-1-5.1-5.3-6.3-9.9-5.3c-13.9,2.8-14.7,21.3-12.8,30.7
		c1.8,8.9,6.5,11.9,13.2,10.5c5.2-1.1,9.9-4.4,12.3-9.3c1.6,4.1,5.2,5.2,9.3,4.4c6.4-1.3,10.4-8.4,9.2-18.2c1.5-0.6,2.8-1.3,4-2.1
		l-0.1,17.3l7.5-1.5l0.1-17.3c0.2-2.7,1.2-5.2,3.1-5.6c1.2-0.3,2.1,0.6,2.4,2.3c0.7,3.3-0.4,10.2,0.4,13.7c0.6,3,2.8,5.5,7.3,4.6
		c1.7-0.3,3.8-1.2,5.5-4l0,2.2c-4.6,2.5-8.3,4.8-7.3,9.6c0.7,3.4,4.1,5,7.2,4.3c3.4-0.7,7.4-3,7.5-10.7l0.3-29.2l3.8-0.8l-0.1-2.1
		l-3.8,0.8l0-4.3c0-3.6,1.6-4.8,2.8-5c1-0.2,2.1,0.2,2.3,1.4c0.1,0.5,0.1,0.9,0.2,1.4l2.4-0.5C225.4,25.3,225.3,24.6,225.1,23.8z
		 M171.8,64.5c-2,0.4-2.8-0.2-3.5-3.7c-1-5.1,0.3-14.9,4-15.7c1.3-0.3,2,0.4,2.6,2.5c-0.9,0.6-1.3,1.6-1,3.1c0.2,1,0.7,1.9,1.8,1.9
		C176.1,58.8,174.4,63.9,171.8,64.5z M210,65.9c-0.1,3.2-1,4.4-2.1,4.6c-1.1,0.2-2.3-0.6-2.4-1.3c-0.6-2.8,1.6-4.7,4.6-6.5L210,65.9
		z"/>
	<path class="st2" d="M243.8,48.6l0,6l7.5-1.5l0.1-20.5c1.1-1.5,2.1-2.6,3.4-2.8c1.6-0.3,0.8,3.2,3.7,2.6c2.5-0.5,3.3-2.7,3-4.5
		c-0.4-2-2-3.6-4.4-3.2c-2.1,0.4-4,2.5-5.6,4.8l0.1-3.4l-7.5,1.5l-0.1,17.3c-2,3.5-4,6.3-8.1,7.1c-2.5,0.5-3.9-0.1-4.6-3.6
		c-0.1-0.6-0.2-1.4-0.3-2.1c6.1-1.6,10.9-7.3,9.7-13.1c-0.5-2.6-2.1-4.7-6.7-3.8c-10.6,2.2-11.5,15.2-10.3,21.1
		c1.2,5.8,4.9,7.6,9.8,6.6C238.4,56,241.6,52.5,243.8,48.6z M234.7,32c1-0.2,1.5,0.6,1.7,1.9c0.9,4.2-1.8,8.8-5.8,9.9
		C230.7,38.4,232.2,32.5,234.7,32z"/>
	<path class="st2" d="M338.4,35.6c4.1-0.8,7.5-3.4,7.4-9.5c-1.4,1.8-3.6,3.6-5.5,4c-2.6,0.5-3.7-1.5-4.1-3.6
		c-0.1-0.6-0.2-1.1-0.2-1.6c6.1-1.6,10.9-7.2,9.7-13.1c-0.5-2.6-2.1-4.7-6.7-3.8c-10.3,2.1-11.4,14.4-10.4,20.5
		c-1.8,3-3.8,5.4-7.5,6.1c-2.5,0.5-4.1-0.1-4.8-3.6c-1.1-5.6,0.2-15.6,3.8-16.4c1-0.2,1.6,0.4,1.8,1.6c0.2,0.9,0.1,2.6-0.1,3.8
		c0.7,0.3,1.6,0.3,2.2,0.2c1.5-0.3,2.4-2.4,1.9-4.9c-0.5-2.2-2.1-4.3-6.7-3.4c-10.5,2.1-11.4,15.2-10.2,21.1c0,0.1,0,0.1,0,0.2
		c-0.5,2-1.2,3.4-3.1,3.8c-1.6,0.3-2.2-0.5-2.5-1.8c-0.6-2.9,0.6-9.7-0.2-13.9c-0.8-4.1-3.6-5.4-6.9-4.7c-1.6,0.3-3.8,1.2-5.5,4.1
		l0-2.8l-7.5,1.5l-0.1,17.3c-2,3.5-4,6.3-8.1,7.1c-2.5,0.5-3.9-0.1-4.6-3.6c-0.1-0.6-0.2-1.4-0.3-2.1c6.1-1.6,10.9-7.3,9.7-13.1
		c-0.5-2.6-2.1-4.7-6.7-3.8c-10.6,2.2-11.5,15.2-10.3,21.1c1.2,5.8,4.9,7.6,9.8,6.6c5.2-1.1,8.4-4.5,10.5-8.5l0,6l7.5-1.5l0.1-17.3
		c0.2-2.7,1.2-5.2,3.1-5.6c1.2-0.3,2.1,0.6,2.4,2.3c0.7,3.3-0.4,10.2,0.4,13.7c0.6,3,2.8,5.5,7.3,4.6c2.1-0.4,4.7-1.6,6.4-6.1
		c1.8,3,4.8,3.8,8.5,3c5.3-1.1,8.5-4.7,10.6-8.7C330.8,35.2,334.2,36.4,338.4,35.6z M339.9,10.6c1-0.2,1.5,0.6,1.7,1.9
		c0.9,4.2-1.9,8.8-5.9,9.9C335.9,17.2,337.3,11.1,339.9,10.6z M274.1,24c1-0.2,1.5,0.6,1.7,1.9c0.9,4.2-1.8,8.8-5.8,9.9
		C270.1,30.4,271.5,24.5,274.1,24z"/>
	<path class="st2" d="M87.7,129.3c-0.1-0.6-0.1-1.2-0.1-1.9l0.1-16.2l3.1-0.6l0-2.2l-3.1,0.6c0-4.9,0.1-8.5,0.1-8.5l-7.5,2.6
		l-0.1,7.5l-1.7,0.3l0,2.2l1.7-0.3l-0.1,15.2l-0.2,0c-0.2,2.7-1.2,5-3.3,5.4c-1.4,0.3-2.2,0-2.5-1.5c-0.1-0.5-0.1-1-0.1-1.7
		l0.2-18.4l-7.5,1.5l0,2.5c-0.8-2.3-3.1-2.2-4.8-1.8c-9,1.8-11,13.8-9.6,20.8c0,0.1,0,0.2,0.1,0.3c-0.5,2-1.2,3.4-3.1,3.8
		c-1.6,0.3-2.3-0.5-2.5-1.8c-0.6-2.9,0.6-9.7-0.2-13.9c-0.8-4.1-3.6-5.4-6.9-4.7c-1.6,0.3-3.8,1.2-5.5,4.1l0.1-13.6l-7.5,2.6
		l-0.2,27.1l0,0c-0.2,2.7-1.7,5.1-3.7,5.5c-1.4,0.3-2.2,0-2.5-1.5c-0.1-0.5-0.1-1-0.1-1.7l0.1-16.2l3.1-0.6l0-2.2l-3.1,0.6l0.1-8.5
		l-7.5,2.6l-0.1,7.5l-1.7,0.3l0,2.2l1.7-0.3l-0.1,15.2c0,1.3,0.1,2.5,0.3,3.4c0.9,4.3,3.7,5.7,6.8,5.1c1.9-0.4,4.7-1.5,6.7-4.9
		l0,3.2l7.5-1.5l0.1-17.3c0.2-2.7,1.2-5.2,3.1-5.6c1.2-0.3,2.1,0.6,2.4,2.3c0.7,3.3-0.4,10.2,0.4,13.7c0.6,3,2.8,5.5,7.3,4.6
		c2.1-0.4,4.7-1.6,6.4-6c1.8,3.1,4.6,3.8,7.3,3.3c3.7-0.7,5.7-3.7,6.7-6.4c1,2.9,3.2,4,6,3.5c2.1-0.4,5.2-1.6,7.1-6
		c0.9,2.6,2.9,4.3,6.1,3.6c1.8-0.4,3.9-1.4,4.5-6.2c-0.4,0.2-1,0.4-1.3,0.4C88.5,131,87.9,130.3,87.7,129.3z M66.5,130.7
		c0,3.1-1.9,5.1-3.4,5.4c-0.9,0.2-2.6,0.5-3.4-3.5c-1-4.9,0-14.8,4.4-15.7c1.6-0.3,2.3,0.9,2.5,1.5L66.5,130.7z"/>
	<path class="st2" d="M140.1,131.2c-6.7,1.4-13.2-3-18.8-3.1l0.4-38.8c-0.7,0.1-1.4,0.2-2.1,0.3c-8.6,1.8-16.8,10.1-15.3,17.4
		c0.7,3.5,3.1,4.3,6.5,3.6c-0.3-0.4-1-1-1.5-3.4c-1.1-5.5,0.8-9.9,5-12.7l-0.4,37.4c0.4-0.1,0.8-0.2,1.2-0.3
		c9-1.8,18.5,8.5,25.1,7.1c3.4-0.7,4.5-4.2,4.1-9.3C142.8,130.4,141.4,130.9,140.1,131.2z"/>
	<path class="st2" d="M165.5,92.1c-2.2,0.4-3,1.8-2.6,3.4c0.2,1.1,1.2,2.5,2.4,2.3c0.4-0.1,1.5-0.5,1.6-0.9
		c1.2,5.7-0.4,18.1-5.4,19.1c-1.2,0.3-1.9-0.3-2.1-1.3c-0.1-0.5-0.1-1.2-0.1-1.9l0.1-18.4l-7.5,1.5l-0.1,7.2
		c-1.3,0.9-2.7,1.6-3.9,1.8c-0.2,0-0.4,0.1-0.6,0.1c-1.1-5.4-3.9-7.7-8.3-6.8c-10.7,2.2-11.7,15.2-10.5,21.2
		c1.2,5.9,5.1,7.5,9.9,6.5c6.4-1.3,10.4-8.4,9.2-18.2c1.5-0.6,2.8-1.3,4-2.1l-0.1,8.6c0,1,0.1,2,0.2,2.5c0.8,4.1,3.7,5.6,7.6,4.8
		c10.6-2.2,11.8-17.4,10.1-25.7C169.2,93.7,168,91.6,165.5,92.1z M139.6,120.7c-2,0.4-2.8-0.2-3.5-3.7c-1-5.1,0.3-14.9,4-15.7
		c1.3-0.3,2,0.4,2.6,2.5c-0.9,0.6-1.3,1.6-1,3.1c0.2,1,0.7,1.9,1.8,1.9C143.9,115.1,142.1,120.2,139.6,120.7z"/>
	<path class="st2" d="M204.4,83.6l-7.5,2.6c-0.6,5.4-1.4,10.9-3.2,16.6c-1.1,0.8-1.9,2.2-1.9,4c-1.7,2.5-3.6,4.5-6.9,5.1
		c-2.5,0.5-3.9-0.1-4.6-3.6c-0.1-0.6-0.2-1.4-0.3-2.1c6.1-1.6,10.9-7.3,9.7-13.1c-0.5-2.6-2.1-4.7-6.7-3.8
		c-10.6,2.2-11.5,15.2-10.3,21.1c1.2,5.8,4.9,7.6,9.8,6.6c4.7-1,7.8-3.9,9.9-7.4c1.1,2.6,4,4.6,8.5,3.7c4.2-0.9,9.9-4.3,8.5-11.1
		C208.7,98.8,207.7,96.9,204.4,83.6z M184,92c1-0.2,1.5,0.6,1.7,1.9c0.9,4.2-1.8,8.8-5.8,9.9C179.9,98.4,181.4,92.5,184,92z
		 M198.4,109.5c-2.3,0.5-3.4-0.5-3.9-3c0.4,0.5,1,0.5,1.5,0.4c1.3-0.3,2-1.8,1.8-3c-0.2-0.9-0.8-1.4-1.6-1.6c1-3.7,1.8-7.1,2.2-10.6
		c2.1,7.9,2.9,9.4,3.5,12.1C202.6,107.4,200.6,109,198.4,109.5z"/>
	<path class="st2" d="M246.7,82.8l-8.3-17.6c-0.7,0.1-1.4,0.2-2.1,0.3c-8.6,1.8-16.8,10.1-15.3,17.4c0.7,3.5,3.1,4.3,6.5,3.6
		c-0.3-0.4-0.9-0.9-1.5-3.4c-1.2-5.6,0.9-10.3,5.4-13l8.9,18.4l-0.2,16.6l8.3-1.7l0.2-16.6l5.4-24.7l-3.4,0.7L246.7,82.8z"/>
	<path class="st2" d="M300.6,87.9c-1.4,0.3-2.2,0-2.5-1.5c-0.1-0.5-0.1-1-0.1-1.7l0.1-18.4l-7.5,1.5l-0.1,17.3
		c-0.2,2.7-1.2,5-3.2,5.4c-1.2,0.2-1.8-0.8-2-2c-0.1-0.4-0.1-0.9-0.1-1.3l0.1-18.4l-7.5,1.5l-0.1,7.2c-1.3,0.9-2.7,1.6-3.9,1.8
		c-0.2,0-0.4,0.1-0.6,0.1c-1.1-5.4-3.9-7.7-8.3-6.8C254.4,75,253.3,88,254.6,94c1.2,5.9,5.1,7.5,9.9,6.5c6.4-1.3,10.4-8.4,9.2-18.2
		c1.5-0.6,2.8-1.3,4-2.1l-0.1,7.6c0,1.3,0.1,2.5,0.3,3.4c0.9,4.3,3.7,5.7,6.8,5.1c2.2-0.4,5-1.7,6.7-6.5c1,3,3.2,4.5,6.1,3.9
		c2.8-0.6,5.2-2.7,4.7-6.5C301.8,87.5,301.6,87.7,300.6,87.9z M265.6,95.2c-2,0.4-2.8-0.2-3.5-3.7c-1-5.1,0.3-14.9,4-15.7
		c1.3-0.3,2,0.4,2.6,2.5c-0.9,0.6-1.3,1.6-1,3.1c0.2,1,0.7,1.9,1.8,1.9C269.9,89.6,268.1,94.7,265.6,95.2z"/>
	<path class="st2" d="M340.1,61.5c3-2.6,4.1-6.2,3.5-9.3c-0.9-4.2-5.1-7.5-12.7-6c-9.8,2-17.5,10.4-16,17.5c0.7,3.5,3.1,4.3,6.5,3.6
		c-0.3-0.4-0.9-0.9-1.4-3.4c-1.7-8.5,4.3-14,10.4-15.2c4.9-1,7.4,1.2,8,4.2c0.8,3.9-1.6,9.1-5.7,9.9l-0.3,0.1l0.1-12l-7.5,2.6
		l-0.3,34.4l7.5-1.5l0.2-20.7c0.9-0.3,1.9-0.6,2.3-0.6c3.8-0.8,5.5,1.9,6.3,5.6c0.8,3.9,0.6,9.6-3.2,10.4c-1.2,0.2-2.3-0.1-3.8-1.2
		c-0.2,1.3-0.2,2.3-0.1,3.1c0.6,3.2,3.7,3.2,5.9,2.8c8.6-1.8,9.3-12.2,8.3-17.2C347.1,64.7,344.6,61.5,340.1,61.5z"/>
	<path class="st2" d="M421.8,63.2c-1.6,0.3-2.2-0.5-2.4-1.5c-0.1-0.6-0.1-1.2-0.1-1.7l0-2.7c0-0.7-0.1-1.4-0.2-2
		c-0.7-3.3-3.1-5.7-6.9-4.9c-0.6,0.1-1.1,0.3-1.7,0.6l8.9-9.3l-5.1,1l-8.4,9.9l0.2-19l-7.5,2.6l-0.2,27.1l0,0c-2,3.5-4,6.3-8.1,7.1
		c-2.5,0.5-4.1-0.1-4.8-3.6c-1.1-5.6,0.2-15.6,3.8-16.4c1-0.2,1.6,0.4,1.8,1.6c0.2,0.9,0.1,2.6-0.1,3.8c0.7,0.3,1.6,0.3,2.2,0.2
		c1.5-0.3,2.4-2.4,1.9-4.9c-0.5-2.2-2.1-4.3-6.7-3.4c-10.5,2.1-11.4,15.2-10.2,21.1c0,0.1,0.1,0.3,0.1,0.4c-0.5,1.8-1.4,3.2-3,3.5
		c-1.4,0.3-2.2,0-2.5-1.5c-0.1-0.5-0.1-1-0.1-1.7l0.2-18.4l-7.5,1.5l0,2.5c-0.8-2.3-3.1-2.2-4.8-1.8c-9,1.8-11,13.8-9.6,20.8
		c1.3,6.2,5.1,7.6,8.6,6.9c3.7-0.7,5.7-3.7,6.7-6.4c1,2.9,3.2,4,6,3.5c2.1-0.4,5.2-1.6,7.1-6.1c1.7,3.1,4.8,4,8.6,3.2
		c5.2-1.1,8.4-4.5,10.5-8.5l-0.1,6l7.5-1.5l0.1-13.3c1.2-1.5,2.2-2.5,3.4-2.7c1.3-0.3,2.1,0.6,2.4,2.1c0.1,0.6,0.2,1.3,0.2,2l0,2.1
		c0,1,0.1,1.9,0.2,2.8c0.8,3.8,3.5,5.4,7.7,4.6c1.3-0.3,4.2-2.6,3.7-6.3C423.2,62.8,423,63,421.8,63.2z M365.2,70
		c0,3.1-1.9,5.1-3.4,5.4c-0.9,0.2-2.6,0.5-3.4-3.5c-1-4.9,0-14.8,4.4-15.7c1.6-0.3,2.3,0.9,2.5,1.5L365.2,70z"/>
	<polygon class="st2" points="432.7,53.4 434.5,27.8 427,29.3 428.3,54.3 	"/>
	<path class="st2" d="M434.8,61.2c-0.5-2.3-2.6-3.7-4.9-3.3c-2.3,0.5-3.8,2.7-3.3,4.9c0.5,2.3,2.7,3.8,5,3.3
		C433.8,65.7,435.2,63.4,434.8,61.2z"/>
</g>
</svg>
